PathFileType	4	(X/Y/Z)	pose_F01_0-87.trc
DataRate	CameraRate	NumFrames	NumMarkers	Units	OrigDataRate	OrigDataStartFrame	OrigNumFrames
30	30	10	21	m	30	0	87
Frame#	Time	CHip			RHip			RKnee			RAnkle			RBigToe			RSmallToe			RHeel			LHip			LKnee			LAnkle			LBigToe			LSmallToe			LHeel			Neck			Nose			RShoulder			RElbow			RWrist			LShoulder			LElbow			LWrist			
		X1	Y1	Z1	X2	Y2	Z2	X3	Y3	Z3	X4	Y4	Z4	X5	Y5	Z5	X6	Y6	Z6	X7	Y7	Z7	X8	Y8	Z8	X9	Y9	Z9	X10	Y10	Z10	X11	Y11	Z11	X12	Y12	Z12	X13	Y13	Z13	X14	Y14	Z14	X15	Y15	Z15	X16	Y16	Z16	X17	Y17	Z17	X18	Y18	Z18	X19	Y19	Z19	X20	Y20	Z20	X21	Y21	Z21	
0	0.0	-0.23805995997462054	1.8830896248414024	-0.5262995311022131	-0.25457797733213866	1.878380299859423	-0.45575058851318706	-0.30487049179293113	1.7414270975581814	-0.38105833366537495													-0.22379310480346046	1.8862635877828398	-0.5893212743287944	-0.21965942776456324	1.7317070708632036	-0.5655748915858532	-0.21391167753706966	1.591210378574888	-0.553582036303373	-0.2175325417260763	1.555568154039116	-0.6411722795868636	-0.20342676641837504	1.5673592864350376	-0.6528185691433405	-0.21887362688946774	1.579190393938126	-0.5299835856186578	-0.24106140393322859	2.0525556328617114	-0.5293745236475454	-0.24742761919375286	2.1262016430432444	-0.5931693407825055	-0.26248763849312834	2.0494408849269883	-0.4376483309100072	-0.27026714293836396	1.9525653532533584	-0.40430310864283847	-0.27887880350137495	1.8706661608279054	-0.39619686561214446	-0.21267968803343126	2.0548522987033184	-0.6251457948897367	-1.4890718106461662	1.8762189542292964	0.7548889058127726	-0.20601267228892173	1.8858984886971881	-0.6416006763135772
1	0.03333333333333333	-0.23932524382387782	1.8827189751477948	-0.5295352339488065	-0.2556519253787104	1.8788591344623078	-0.45892995852715446	-0.30081523344136063	1.7402173852016871	-0.38525512817081586													-0.22395381630177583	1.8848576157832082	-0.5893064117348052	-0.21993767263589353	1.7332078167946567	-0.5653796786021223	-0.2148694238085198	1.5909753874999593	-0.5568702603053334	-0.2176623466269861	1.5562838263222578	-0.6408533240869679	-0.20542171275608787	1.5668155693223884	-0.6506597905948226	-0.21860949582270725	1.5777097997201848	-0.5300554525644857	-0.24106674085225235	2.052585805485219	-0.5293270722026773	-0.24740577794724428	2.1248847330125242	-0.5925836776423705	-0.26250649060536146	2.0494358253964458	-0.43754030853700976	-0.2701181235544011	1.9536551535826863	-0.40438263715240164	-0.2788342918665595	1.8708980267008208	-0.3962977023933101	-0.21267504460005598	2.054869446446189	-0.6251580871713232	-1.4890718106461662	1.8762189542292964	0.7548889058127726	-0.20601267228892173	1.8858984886971881	-0.6416006763135772
2	0.06666666666666667	-0.2405905276731351	1.8823483254541873	-0.5327709367954	-0.25672587342528214	1.8793379690651926	-0.46210932854112186	-0.29675997508979013	1.7390076728451929	-0.3894519226762568													-0.2241145278000912	1.8834516437835767	-0.589291549140816	-0.22021591750722383	1.7347085627261098	-0.5651844656183915	-0.21582717007996996	1.5907403964250306	-0.5601584843072938	-0.2177921515278959	1.5569994986053997	-0.6405343685870722	-0.2074166590938007	1.5662718522097392	-0.6485010120463047	-0.21834536475594676	1.5762292055022435	-0.5301273195103137	-0.24107207777127612	2.0526159781087268	-0.5292796207578091	-0.2473839367007357	2.123567822981804	-0.5919980145022355	-0.2625253427175946	2.0494307658659032	-0.4374322861640123	-0.2699691041704383	1.954744953912014	-0.4044621656619648	-0.27878978023174406	1.8711298925737363	-0.3963985391744757	-0.2126704011666807	2.0548865941890595	-0.6251703794529097	-1.4890718106461662	1.8762189542292964	0.7548889058127726	-0.20601267228892173	1.8858984886971881	-0.6416006763135772
3	0.1	-0.2426768451612624	1.8836131139645038	-0.5307501237859018	-0.2559992320573247	1.8789312055841978	-0.4588968562657262	-0.29270471673821963	1.7377979604886986	-0.3936487171816977													-0.22640559577638136	1.8861761750444488	-0.5874847530757066	-0.2226673042763028	1.7318849813575656	-0.5623578913946459	-0.2156122835430868	1.5893345119097044	-0.5604538998075813	-0.21354572694160823	1.5547728170553758	-0.6446335363850547	-0.20548415004798343	1.5647993370557691	-0.650138545899141	-0.2189811371230661	1.5765465995759738	-0.5295990540702987	-0.24108101170326665	2.0526209520254888	-0.5292035481183943	-0.24936935882300237	2.124735899809316	-0.5904773663441343	-0.2624507747484957	2.0493900780025296	-0.4374238590225905	-0.270108423663865	1.953479794494958	-0.40437452721071104	-0.2782870669983508	1.8679412123659513	-0.40134750363429655	-0.21475691953289844	2.0547266005801323	-0.6229529176392951	-1.4890718106461662	1.8762189542292964	0.7548889058127726	-0.20601267228892173	1.8858984886971881	-0.6416006763135772
4	0.13333333333333333	-0.2407196855130855	1.881055376610844	-0.5325144049129488	-0.2558457114636342	1.8775789936363612	-0.45870372390123365	-0.2886494583866491	1.7365882481322044	-0.3978455116871386													-0.2242908489813335	1.882147325806337	-0.5890920425595023	-0.22065061730971103	1.731931276340731	-0.5645281617861359	-0.2158911053054444	1.5882377884410233	-0.5599444295348022	-0.21566072684254417	1.557550465296414	-0.642825707430584	-0.2054273286790861	1.5671085645443295	-0.6506986146014198	-0.21971674289882065	1.5754333698260705	-0.5330762475102251	-0.24107041830025067	2.0526123328536743	-0.529268517862434	-0.24944776557798673	2.122359148524161	-0.5900550755892681	-0.2624942758870295	2.0493845006864655	-0.43750973884866023	-0.27012217090790436	1.9534118269622056	-0.404419711477209	-0.280799178200201	1.8738764927957685	-0.40310115421525267	-0.21268304759102524	2.054814194658571	-0.6250772197712803	-1.4890718106461662	1.8762189542292964	0.7548889058127726	-0.20601267228892173	1.8858984886971881	-0.6416006763135772
5	0.16666666666666666	-0.2407074514082742	1.8835789768638214	-0.5329801850013742	-0.2579951526609315	1.8795884238022558	-0.46542605297528933	-0.2845942000350786	1.73537853577571	-0.4020423061925795													-0.22437257487976198	1.8860219197221741	-0.5896239857614637	-0.22227175407443325	1.7320392564599871	-0.5627185112270521	-0.21758524910954288	1.589188121937097	-0.558297304831269	-0.21550758433955217	1.5560545128973364	-0.6430625623885139	-0.20536578711167508	1.566569159483485	-0.6506987166548559	-0.2185973941082376	1.5746063660593852	-0.5299089821918779	-0.24107909815977688	2.052595596850767	-0.5292614275478693	-0.24943922321793716	2.1223052892847205	-0.5900020618180971	-0.26249702261767055	2.0493927266284966	-0.4375367072457954	-0.2681767441918359	1.956008880146886	-0.4069888083266439	-0.2809588707441634	1.876727198787491	-0.4035807662951221	-0.2147038491841637	2.0546627475794987	-0.6229515007250196	-1.4890718106461662	1.8762189542292964	0.7548889058127726	-0.20601267228892173	1.8858984886971881	-0.6416006763135772
6	0.2	-0.2402810016333293	1.8819404555723567	-0.5326818504529464	-0.2555859865168645	1.8773195804435947	-0.4586621947599686	-0.2805389416835081	1.7341688234192159	-0.40623910069802044													-0.22384013795627264	1.8828428092602754	-0.5893240133021875	-0.22084338692784747	1.7327875996911493	-0.5686027296517957	-0.21580897515398975	1.5878944835632505	-0.5599222104597741	-0.21448082835638238	1.5559934067459644	-0.6394925523659174	-0.20530877056815314	1.5669113572633906	-0.6502010196654732	-0.21753268832477027	1.5747704543713652	-0.5352308660317235	-0.24105319208540926	2.052573391516125	-0.5292526569671451	-0.24854937386437453	2.1220868720662787	-0.5871337784931279	-0.26245984833178837	2.049386683270207	-0.4374762062546461	-0.2699922754398618	1.954853989251595	-0.40447175956769416	-0.2827873259304702	1.8752862281537923	-0.40985542830129335	-0.21271376887124588	2.0545969598109544	-0.6250903236000428	-1.4890718106461662	1.8762189542292964	0.7548889058127726	-0.20601267228892173	1.8858984886971881	-0.6416006763135772
7	0.23333333333333334	-0.24052403528035124	1.8850050020675029	-0.5331063783719684	-0.2568133591306475	1.8806913757981634	-0.46236751650569924	-0.2764836833319376	1.7329591110627216	-0.41043589520346135													-0.2241909841990498	1.887287979298913	-0.5897871978316136	-0.21919757368376222	1.732766998462623	-0.5703363837439696	-0.21584436879883595	1.5881440037879873	-0.5598684555195275	-0.2114856201230821	1.5557890427065428	-0.6466094792811398	-0.20333767226326263	1.5649483347922573	-0.6523145982345936	-0.21892174458697167	1.57668051621769	-0.5296028498243893	-0.24014541993223945	2.0524673444535515	-0.5263751241804643	-0.24856725785121883	2.1221093769258847	-0.5871136400440679	-0.2624707214783012	2.0493769367000323	-0.4374638214135336	-0.2699514027666686	1.954733308162537	-0.4045674554726965	-0.2822360245955403	1.8752045972130458	-0.4066736072240114	-0.21182801308548882	2.05459420410542	-0.6222256264562986	-1.4890718106461662	1.8762189542292964	0.7548889058127726	-0.20601267228892173	1.8858984886971881	-0.6416006763135772
8	0.26666666666666666	-0.24065945847121487	1.8837909812301934	-0.5330949622972837	-0.2579459942620177	1.8796596081534767	-0.4654355517497749	-0.2724284249803671	1.7317493987062273	-0.41463268970890227													-0.22517964231490437	1.8861837104197732	-0.592764746486271	-0.2214595506986449	1.734471897042605	-0.5681160911024349	-0.2158723909172084	1.5880733394413693	-0.5599334337161962	-0.21498421254337563	1.5560965178630124	-0.6391482835967136	-0.20547502300374634	1.5649169093069917	-0.6501117105756212	-0.2196195868767014	1.5748891781555716	-0.5330111201643281	-0.2410613791840263	2.0525948908645852	-0.5292287799123615	-0.2485537495547867	2.1221152318016503	-0.5870873507256964	-0.2624703672725134	2.0493640493728216	-0.4374682046175674	-0.2700118380440358	1.9561203032001018	-0.40486068019910004	-0.2821844490487193	1.8750603000866402	-0.4066995612605286	-0.211886957697357	2.0546226499243683	-0.622231164345989	-1.4890718106461662	1.8762189542292964	0.7548889058127726	-0.20601267228892173	1.8858984886971881	-0.6416006763135772
9	0.3	-0.24063112608383785	1.8863940780809672	-0.5333618268770633	-0.25790987775413476	1.8821788190673872	-0.465806558091238	-0.2683731666287966	1.730539686349733	-0.4188294842143432													-0.22431213687502796	1.8887116393899477	-0.5899902839146787	-0.21928755288364535	1.737270162214483	-0.5707695184238205	-0.21494476353706862	1.591410234274805	-0.5568150296595022	-0.2145297052897288	1.5560235289848472	-0.6399177028229073	-0.2052988456380825	1.5664341193911646	-0.6506331428054588	-0.21884592495143745	1.5788604935143395	-0.5300020162924673	-0.24103040574151885	2.052548934837793	-0.5292657145328581	-0.24853494445101665	2.1222039911850916	-0.5870989558240666	-0.26244577005862396	2.0494117266670564	-0.43753221052633806	-0.26824299018290315	1.9577774402117365	-0.4073688068441028	-0.2804184432196128	1.8817194356041889	-0.40156198723914777	-0.21185255325115487	2.054542574614778	-0.6222225270186651	-1.4890718106461662	1.8762189542292964	0.7548889058127726	-0.20601267228892173	1.8858984886971881	-0.6416006763135772
